<svg width="119" height="118" viewBox="0 0 119 118" fill="none" xmlns="http://www.w3.org/2000/svg">
<g filter="url(#filter0_d)">
<circle cx="39.5" cy="39.5" r="39.5" transform="translate(20 15)" fill="url(#paint0_linear)"/>
</g>
<path fill-rule="evenodd" clip-rule="evenodd" d="M0 6.73913C0 3.01721 3.10913 0 6.94444 0H18.0556C21.8909 0 25 3.01721 25 6.73913V13.4783C25 14.2226 24.3782 14.8261 23.6111 14.8261H1.38889C0.621827 14.8261 0 14.2226 0 13.4783V6.73913ZM6.94444 2.69565C4.64326 2.69565 2.77778 4.50598 2.77778 6.73913V12.1304H22.2222V6.73913C22.2222 4.50598 20.3567 2.69565 18.0556 2.69565H6.94444Z" transform="translate(47 55.1739)" fill="url(#paint1_linear)"/>
<path fill-rule="evenodd" clip-rule="evenodd" d="M0 6.73913C0 3.01721 3.10913 0 6.94444 0C10.7798 0 13.8889 3.01721 13.8889 6.73913C13.8889 10.461 10.7798 13.4783 6.94444 13.4783C3.10913 13.4783 0 10.461 0 6.73913ZM6.94444 2.69565C4.64326 2.69565 2.77778 4.50598 2.77778 6.73913C2.77778 8.97228 4.64326 10.7826 6.94444 10.7826C9.24563 10.7826 11.1111 8.97228 11.1111 6.73913C11.1111 4.50598 9.24563 2.69565 6.94444 2.69565Z" transform="translate(52.5556 39)" fill="url(#paint2_linear)"/>
<defs>
<filter id="filter0_d" x="0" y="0" width="119" height="119" filterUnits="userSpaceOnUse" color-interpolation-filters="sRGB">
<feFlood flood-opacity="0" result="BackgroundImageFix"/>
<feColorMatrix in="SourceAlpha" type="matrix" values="0 0 0 0 0 0 0 0 0 0 0 0 0 0 0 0 0 0 255 0"/>
<feOffset dy="5"/>
<feGaussianBlur stdDeviation="10"/>
<feColorMatrix type="matrix" values="0 0 0 0 0 0 0 0 0 0 0 0 0 0 0 0 0 0 0.25 0"/>
<feBlend mode="normal" in2="BackgroundImageFix" result="effect1_dropShadow"/>
<feBlend mode="normal" in="SourceGraphic" in2="effect1_dropShadow" result="shape"/>
</filter>
<linearGradient id="paint0_linear" x2="1" gradientUnits="userSpaceOnUse" gradientTransform="matrix(113.5 -92 99.352 43.2283 -74.176 65.8859)">
<stop stop-color="#8C4CFF"/>
<stop offset="1" stop-color="#FF7B69"/>
</linearGradient>
<linearGradient id="paint1_linear" x2="1" gradientUnits="userSpaceOnUse" gradientTransform="translate(0 -6.25163) scale(25 42.1554)">
<stop stop-color="white"/>
<stop offset="1" stop-color="white" stop-opacity="0"/>
</linearGradient>
<linearGradient id="paint2_linear" x2="1" gradientUnits="userSpaceOnUse" gradientTransform="translate(0.444444 6.78023) scale(13 13.3961)">
<stop stop-color="white"/>
<stop offset="1" stop-color="white" stop-opacity="0"/>
</linearGradient>
</defs>
</svg>
