<svg width="39" height="35" viewBox="0 0 39 35" fill="none" xmlns="http://www.w3.org/2000/svg">
<path fill-rule="evenodd" clip-rule="evenodd" d="M20.1005 3.29506C22.1763 1.18532 24.9922 0 27.9285 0C30.8647 0 33.6805 1.18521 35.7563 3.29478C37.8328 5.40366 39 8.26491 39 11.2478C39 14.2309 37.8333 17.0917 35.7566 19.2006C35.7565 19.2007 35.7567 19.2005 35.7566 19.2006L20.7036 34.4933C20.0386 35.1689 18.9605 35.1689 18.2955 34.4933L3.24249 19.2006C-1.08083 14.8084 -1.08083 7.68725 3.24249 3.29506C7.56582 -1.09712 14.5753 -1.09712 18.8986 3.29506L19.4995 3.90555L20.1005 3.29506C20.1006 3.29497 20.1004 3.29516 20.1005 3.29506ZM27.9285 3.4599C25.8956 3.4599 23.946 4.28058 22.5089 5.74129L20.7036 7.57532C20.3843 7.89975 19.9512 8.08201 19.4995 8.08201C19.0479 8.08201 18.6148 7.89975 18.2955 7.57532L16.4905 5.74158C13.4971 2.70057 8.64398 2.70057 5.65065 5.74158C2.65732 8.78259 2.65732 13.713 5.65065 16.7541L19.4995 30.8235L33.3484 16.7541C34.7863 15.294 35.5943 13.3131 35.5943 11.2478C35.5943 9.18254 34.7865 7.2019 33.3487 5.74187C31.9116 4.28115 29.9614 3.4599 27.9285 3.4599Z" fill="white" fill-opacity="0.1"/>
<path fill-rule="evenodd" clip-rule="evenodd" d="M19.0697 3.10678C21.0391 1.11759 23.7106 0 26.4963 0C29.2819 0 31.9533 1.11749 33.9227 3.1065C35.8927 5.09488 37 7.79262 37 10.6051C37 13.4177 35.8931 16.115 33.9229 18.1034C33.9228 18.1035 33.923 18.1033 33.9229 18.1034L19.6419 32.5223C19.011 33.1592 17.9881 33.1592 17.3572 32.5223L3.07621 18.1034C-1.0254 13.9622 -1.0254 7.24798 3.07621 3.10677C7.17782 -1.03443 13.8279 -1.03443 17.9295 3.10677L18.4996 3.68238L19.0697 3.10678C19.0698 3.10668 19.0696 3.10687 19.0697 3.10678ZM26.4963 3.26219C24.5676 3.26219 22.718 4.03597 21.3546 5.41322L19.6419 7.14245C19.3389 7.44834 18.928 7.62018 18.4996 7.62018C18.0711 7.62018 17.6602 7.44834 17.3572 7.14245L15.6448 5.41349C12.805 2.54625 8.2007 2.54625 5.36087 5.41349C2.52104 8.28073 2.52104 12.9294 5.36087 15.7967L18.4996 29.0622L31.6383 15.7967C33.0023 14.4201 33.769 12.5524 33.769 10.6051C33.769 8.65782 33.0026 6.79036 31.6385 5.41376C30.2751 4.03651 28.4249 3.26219 26.4963 3.26219Z" transform="translate(1 1)" fill="white"/>
</svg>
