<svg width="163" height="82" viewBox="0 0 163 82" fill="none" xmlns="http://www.w3.org/2000/svg">
<path d="M29.0497 56.0526C25.8603 60.775 21.5991 63.1362 16.2663 63.1362C12.4134 63.1362 9.41533 61.9427 7.272 59.5559C5.12867 57.169 4.05701 53.6016 4.05701 48.8535V32.877C4.05701 31.0291 3.89116 29.8228 3.55945 29.2582C3.25326 28.6936 2.39848 28.4113 0.995116 28.4113H0V24.1765C2.34745 24.1765 4.04425 23.9969 5.0904 23.6376C6.16206 23.2526 6.92754 22.9831 7.38682 22.8291C7.84611 22.6495 8.40745 22.5596 9.07087 22.5596C10.3722 22.5596 11.2397 22.9703 11.6735 23.7915C12.1072 24.5872 12.3241 25.8704 12.3241 27.6413V49.123C12.3241 51.9462 12.6176 53.871 13.2044 54.8977C14.3271 56.8739 16.2536 57.862 18.9838 57.862C20.8209 57.862 22.6325 57.1305 24.4186 55.6676C26.2047 54.2047 27.4678 52.498 28.2077 50.5474V32.877C28.1567 30.9778 27.9781 29.7587 27.6719 29.2197C27.3657 28.6808 26.5109 28.4113 25.1075 28.4113H22.9259V24.1765C25.3499 24.1765 27.2126 23.9969 28.5139 23.6376C29.8407 23.2526 30.7848 22.9831 31.3462 22.8291C31.9075 22.6495 32.5199 22.5596 33.1833 22.5596C34.4846 22.5596 35.3521 22.9446 35.7859 23.7146C36.2452 24.4845 36.4748 25.7421 36.4748 27.4873V52.1258C36.4748 54.6153 36.5897 56.1552 36.8193 56.7455C37.2275 57.8748 38.2482 58.4394 39.8812 58.4394C40.7487 58.4394 41.4887 58.2983 42.1011 58.016V61.7502C40.8763 62.6742 39.205 63.1362 37.0872 63.1362C32.6475 63.1362 29.9683 60.775 29.0497 56.0526Z" fill="white"/>
<path d="M62.1259 28.3343C57.9413 28.3343 54.5477 29.6432 51.9451 32.261V54.0892C51.9451 55.6804 52.2002 56.6814 52.7105 57.092C53.6036 57.785 55.2876 58.1315 57.7627 58.1315V62.3662H38.3196V58.1315C40.514 58.1315 41.8918 57.9133 42.4532 57.477C43.0145 57.015 43.359 56.5274 43.4866 56.0141C43.6141 55.5008 43.6779 54.8592 43.6779 54.0892V33.108C43.6779 31.2601 43.5121 30.0538 43.1804 29.4892C42.8742 28.9246 42.0067 28.6423 40.5778 28.6423H38.2431V24.4075C40.6416 24.4075 42.517 24.2279 43.8693 23.8685C45.2472 23.4836 46.2168 23.2141 46.7781 23.0601C47.365 22.8804 47.9901 22.7906 48.6535 22.7906C50.0059 22.7906 50.8862 23.1884 51.2944 23.984C51.7282 24.754 51.9451 25.9987 51.9451 27.7183C54.6752 25.4085 57.8392 23.8429 61.4369 23.0216C62.6362 22.7393 63.8099 22.5981 64.9581 22.5981C73.2252 22.5981 77.3588 28.1033 77.3588 39.1136V54.0122C77.3588 55.7061 77.6012 56.8225 78.086 57.3615C78.5708 57.8748 79.8976 58.1315 82.0665 58.1315V62.3662H63.963V58.1315C66.2849 58.1315 67.6755 57.9005 68.1348 57.4385C68.6196 56.9509 68.9003 56.4504 68.9769 55.9371C69.0534 55.4238 69.0917 54.7822 69.0917 54.0122V39.6141C69.0917 36.0466 68.76 33.5956 68.0966 32.261C66.7953 29.6432 64.805 28.3343 62.1259 28.3343Z" fill="white"/>
<path d="M89.3844 15.4376C87.7259 15.4376 86.3097 14.8858 85.136 13.7822C83.9878 12.6529 83.4137 11.2798 83.4137 9.66291C83.4137 8.02034 84.0006 6.63443 85.1743 5.50516C86.348 4.35023 87.7514 3.77277 89.3844 3.77277C91.0174 3.77277 92.4208 4.35023 93.5945 5.50516C94.7682 6.63443 95.3551 8.02034 95.3551 9.66291C95.3551 11.2798 94.7682 12.6529 93.5945 13.7822C92.4463 14.8858 91.0429 15.4376 89.3844 15.4376ZM79.6246 58.1315C81.9976 58.1315 83.4775 57.9133 84.0643 57.477C84.6767 57.015 85.0467 56.5274 85.1743 56.0141C85.3019 55.5008 85.3656 54.8592 85.3656 54.0892V32.877C85.3656 31.0291 85.1998 29.8228 84.8681 29.2582C84.5619 28.6936 83.7071 28.4113 82.3037 28.4113H79.548V24.1765C82.0486 24.1765 84.0133 23.9969 85.4422 23.6376C86.8711 23.2526 87.8789 22.9831 88.4658 22.8291C89.0527 22.6495 89.6906 22.5596 90.3795 22.5596C91.7063 22.5596 92.5739 22.9574 92.9821 23.7531C93.4159 24.523 93.6328 25.7678 93.6328 27.4873V54.0892C93.6328 55.7061 93.8879 56.7199 94.3982 57.1305C95.2658 57.7978 96.9115 58.1315 99.3355 58.1315V62.3662H79.6246V58.1315Z" fill="white"/>
<path d="M98.3481 58.1315C100.568 58.1315 101.959 57.9133 102.52 57.477C103.081 57.015 103.413 56.5274 103.515 56.0141C103.643 55.5008 103.706 54.8592 103.706 54.0892V30.4131C103.706 29.4122 103.579 28.7577 103.324 28.4498C103.094 28.1161 102.584 27.9493 101.793 27.9493H97.4678V23.3296H103.706V19.4798C103.706 13.4998 105.123 8.76463 107.955 5.27418C110.813 1.75806 114.614 0 119.36 0C122.601 0 125.178 1.00094 127.092 3.00282C129.031 4.97903 130 7.26322 130 9.8554C130 12.4476 129.044 14.18 127.13 15.0526C126.492 15.3349 125.829 15.4761 125.14 15.4761C123.787 15.4761 122.601 15.0141 121.58 14.0901C120.585 13.1662 120.088 12.1396 120.088 11.0103C120.088 8.85446 121.032 7.45571 122.92 6.81408C122.537 5.91581 121.988 5.24851 121.274 4.81221C120.56 4.3759 119.909 4.15775 119.322 4.15775C118.761 4.15775 118.199 4.20908 117.638 4.31174C117.077 4.38873 116.528 4.59405 115.992 4.9277C113.364 6.49327 112.05 11.1643 112.05 18.9408V23.3296H123.609V27.9493H112.05V53.7427C112.05 55.6933 112.484 56.9124 113.351 57.4C114.244 57.8876 116.503 58.1315 120.126 58.1315V62.3662H98.3481V58.1315Z" fill="white"/>
<path d="M128.669 77.2263C129.332 77.3546 129.881 77.4059 130.314 77.3803C130.774 77.3803 131.309 77.1621 131.922 76.7258C132.56 76.3152 133.172 75.7634 133.759 75.0704C134.907 73.7615 135.889 72.1703 136.706 70.2967C137.548 68.4232 137.969 66.9474 137.969 65.8695C137.969 64.7915 137.829 63.9703 137.548 63.4056C137.293 62.841 136.987 62.3534 136.629 61.9427C136.272 61.5064 135.889 61.0829 135.481 60.6723C135.073 60.2617 134.741 59.7099 134.486 59.0169L123.387 31.6836C122.851 30.0923 122.29 29.0144 121.703 28.4498C121.116 27.8595 119.827 27.5643 117.837 27.5643V23.3296H138.428V27.5643C135.494 27.5643 133.721 27.8081 133.108 28.2958C132.496 28.7577 132.177 29.2454 132.151 29.7587C132.126 30.272 132.241 30.9136 132.496 31.6836L142.026 57.862L151.709 31.6836C152.296 30.195 152.118 29.1427 151.173 28.5268C150.229 27.8851 148.226 27.5643 145.164 27.5643V23.3296H163V27.5643C161.316 27.5643 160.04 27.9108 159.173 28.6038C158.331 29.271 157.642 30.2977 157.106 31.6836L146.848 59.2094C145.955 61.2369 145.113 63.2131 144.322 65.138C143.531 67.0629 142.728 68.8723 141.911 70.5662C140.1 74.339 138.135 77.1878 136.017 79.1127C133.899 81.0376 131.424 82 128.592 82C125.785 82 123.616 81.2942 122.085 79.8826C120.554 78.4967 119.789 76.8798 119.789 75.0319C119.789 73.2097 120.299 71.7596 121.32 70.6817C122.341 69.6038 123.616 69.0648 125.147 69.0648C127.342 69.0648 128.86 70.0401 129.702 71.9906C129.957 72.5809 130.085 73.2097 130.085 73.877C130.085 75.1603 129.613 76.2767 128.669 77.2263Z" fill="white"/>
</svg>
