<svg width="92" height="45" viewBox="0 0 92 45" fill="none" xmlns="http://www.w3.org/2000/svg">
<path d="M16.3962 30.7606C14.596 33.3521 12.1909 34.6479 9.18099 34.6479C7.00636 34.6479 5.31417 33.993 4.10444 32.6831C2.89471 31.3732 2.28985 29.4155 2.28985 26.8099V18.0423C2.28985 17.0282 2.19624 16.3662 2.00902 16.0563C1.8362 15.7465 1.35375 15.5915 0.561661 15.5915H0V13.2676C1.32494 13.2676 2.28265 13.169 2.87311 12.9718C3.47798 12.7606 3.91002 12.6127 4.16925 12.5282C4.42848 12.4296 4.74531 12.3803 5.11975 12.3803C5.85423 12.3803 6.34388 12.6056 6.58871 13.0563C6.83354 13.493 6.95595 14.1972 6.95595 15.169V26.9577C6.95595 28.507 7.12157 29.5634 7.4528 30.1268C8.08647 31.2113 9.17379 31.7535 10.7148 31.7535C11.7517 31.7535 12.7742 31.3521 13.7823 30.5493C14.7904 29.7465 15.5033 28.8099 15.9209 27.7394V18.0423C15.8921 17 15.7913 16.331 15.6185 16.0352C15.4457 15.7394 14.9632 15.5915 14.1711 15.5915H12.9398V13.2676C14.3079 13.2676 15.3593 13.169 16.0937 12.9718C16.8426 12.7606 17.3755 12.6127 17.6923 12.5282C18.0091 12.4296 18.3548 12.3803 18.7292 12.3803C19.4637 12.3803 19.9534 12.5915 20.1982 13.0141C20.4574 13.4366 20.587 14.1268 20.587 15.0845V28.6056C20.587 29.9718 20.6518 30.8169 20.7814 31.1408C21.0119 31.7606 21.5879 32.0704 22.5096 32.0704C22.9993 32.0704 23.4169 31.993 23.7626 31.838V33.8873C23.0713 34.3944 22.128 34.6479 20.9327 34.6479C18.4268 34.6479 16.9146 33.3521 16.3962 30.7606Z" fill="#A958DB"/>
<path d="M35.0649 15.5493C32.703 15.5493 30.7876 16.2676 29.3187 17.7042V29.6831C29.3187 30.5563 29.4627 31.1056 29.7507 31.331C30.2548 31.7113 31.2053 31.9014 32.6022 31.9014V34.2254H21.6283V31.9014C22.8668 31.9014 23.6445 31.7817 23.9613 31.5423C24.2781 31.2887 24.4726 31.0211 24.5446 30.7394C24.6166 30.4577 24.6526 30.1056 24.6526 29.6831V18.169C24.6526 17.1549 24.559 16.493 24.3717 16.1831C24.1989 15.8732 23.7093 15.7183 22.9028 15.7183H21.585V13.3944C22.9388 13.3944 23.9973 13.2958 24.7606 13.0986C25.5383 12.8873 26.0855 12.7394 26.4024 12.6549C26.7336 12.5563 27.0864 12.507 27.4609 12.507C28.2242 12.507 28.721 12.7254 28.9514 13.162C29.1963 13.5845 29.3187 14.2676 29.3187 15.2113C30.8596 13.9437 32.6454 13.0845 34.6761 12.6338C35.3529 12.4789 36.0154 12.4014 36.6635 12.4014C41.3296 12.4014 43.6626 15.4225 43.6626 21.4648V29.6408C43.6626 30.5704 43.7994 31.1831 44.0731 31.4789C44.3467 31.7606 45.0956 31.9014 46.3197 31.9014V34.2254H36.1018V31.9014C37.4124 31.9014 38.1972 31.7746 38.4565 31.5211C38.7301 31.2535 38.8885 30.9789 38.9317 30.6972C38.9749 30.4155 38.9965 30.0634 38.9965 29.6408V21.7394C38.9965 19.7817 38.8093 18.4366 38.4349 17.7042C37.7004 16.2676 36.5771 15.5493 35.0649 15.5493Z" fill="#A958DB"/>
<path d="M50.4501 8.47183C49.514 8.47183 48.7147 8.16901 48.0522 7.56338C47.4042 6.94366 47.0801 6.19014 47.0801 5.30282C47.0801 4.40141 47.4114 3.64084 48.0738 3.02113C48.7363 2.38732 49.5284 2.07042 50.4501 2.07042C51.3718 2.07042 52.1639 2.38732 52.8263 3.02113C53.4888 3.64084 53.82 4.40141 53.82 5.30282C53.82 6.19014 53.4888 6.94366 52.8263 7.56338C52.1783 8.16901 51.3862 8.47183 50.4501 8.47183ZM44.9415 31.9014C46.2808 31.9014 47.1161 31.7817 47.4474 31.5423C47.793 31.2887 48.0018 31.0211 48.0738 30.7394C48.1458 30.4577 48.1818 30.1056 48.1818 29.6831V18.0423C48.1818 17.0282 48.0882 16.3662 47.901 16.0563C47.7282 15.7465 47.2457 15.5915 46.4536 15.5915H44.8983V13.2676C46.3096 13.2676 47.4186 13.169 48.225 12.9718C49.0315 12.7606 49.6004 12.6127 49.9316 12.5282C50.2629 12.4296 50.6229 12.3803 51.0117 12.3803C51.7606 12.3803 52.2503 12.5986 52.4807 13.0352C52.7255 13.4577 52.8479 14.1408 52.8479 15.0845V29.6831C52.8479 30.5704 52.992 31.1268 53.28 31.3521C53.7696 31.7183 54.6985 31.9014 56.0667 31.9014V34.2254H44.9415V31.9014Z" fill="#A958DB"/>
<path d="M55.5093 31.9014C56.7623 31.9014 57.5472 31.7817 57.864 31.5423C58.1808 31.2887 58.3681 31.0211 58.4257 30.7394C58.4977 30.4577 58.5337 30.1056 58.5337 29.6831V16.6901C58.5337 16.1408 58.4617 15.7817 58.3176 15.6127C58.188 15.4296 57.9 15.338 57.4536 15.338H55.0125V12.8028H58.5337V10.6901C58.5337 7.40845 59.333 4.80986 60.9315 2.89437C62.5445 0.964789 64.6903 0 67.369 0C69.198 0 70.6526 0.549296 71.7327 1.64789C72.8272 2.73239 73.3745 3.98592 73.3745 5.40845C73.3745 6.83099 72.8344 7.78169 71.7543 8.26056C71.3943 8.41549 71.0198 8.49296 70.631 8.49296C69.8677 8.49296 69.198 8.23944 68.622 7.73239C68.0603 7.22535 67.7795 6.66197 67.7795 6.04225C67.7795 4.85915 68.3123 4.09155 69.378 3.73944C69.162 3.24648 68.8524 2.88028 68.4491 2.64085C68.0459 2.40141 67.6787 2.28169 67.3474 2.28169C67.0306 2.28169 66.7138 2.30986 66.3969 2.3662C66.0801 2.40845 65.7705 2.52113 65.468 2.70423C63.9847 3.56338 63.243 6.12676 63.243 10.3944V12.8028H69.7669V15.338H63.243V29.493C63.243 30.5634 63.4878 31.2324 63.9775 31.5C64.4815 31.7676 65.756 31.9014 67.8011 31.9014V34.2254H55.5093V31.9014Z" fill="#A958DB"/>
<path d="M72.6227 42.3803C72.9972 42.4507 73.3068 42.4789 73.5516 42.4648C73.8108 42.4648 74.1133 42.3451 74.4589 42.1056C74.819 41.8803 75.1646 41.5775 75.4958 41.1972C76.1439 40.4789 76.6984 39.6056 77.1592 38.5775C77.6345 37.5493 77.8721 36.7394 77.8721 36.1479C77.8721 35.5563 77.7929 35.1056 77.6344 34.7958C77.4904 34.4859 77.3176 34.2183 77.116 33.993C76.9144 33.7535 76.6984 33.5211 76.4679 33.2958C76.2375 33.0704 76.0503 32.7676 75.9063 32.3873L69.6416 17.3873C69.3392 16.5141 69.0223 15.9225 68.6911 15.6127C68.3598 15.2887 67.6326 15.1268 66.5093 15.1268V12.8028H78.1313V15.1268C76.4751 15.1268 75.4742 15.2606 75.1286 15.5282C74.7829 15.7817 74.6029 16.0493 74.5885 16.331C74.5741 16.6127 74.6389 16.9648 74.7829 17.3873L80.1619 31.7535L85.6273 17.3873C85.9585 16.5704 85.8577 15.993 85.3249 15.6549C84.792 15.3028 83.6615 15.1268 81.9333 15.1268V12.8028H92V15.1268C91.0495 15.1268 90.3294 15.3169 89.8398 15.6972C89.3645 16.0634 88.9757 16.6268 88.6732 17.3873L82.8838 32.493C82.3798 33.6056 81.9045 34.6901 81.4581 35.7465C81.0116 36.8028 80.558 37.7958 80.0971 38.7254C79.0746 40.7958 77.9657 42.3592 76.7704 43.4155C75.575 44.4718 74.1781 45 72.5795 45C70.9953 45 69.7712 44.6127 68.9071 43.838C68.043 43.0775 67.611 42.1901 67.611 41.1761C67.611 40.1761 67.899 39.3803 68.4751 38.7887C69.0511 38.1972 69.7712 37.9014 70.6353 37.9014C71.8738 37.9014 72.7307 38.4366 73.206 39.507C73.35 39.831 73.422 40.1761 73.422 40.5423C73.422 41.2465 73.1556 41.8592 72.6227 42.3803Z" fill="#A958DB"/>
</svg>
